Coordinates
version=1
nRows=18
nColumns=28
inDegrees=yes

Units are S.I. units (second, meters, Newtons, ...)
Angles are in degrees.

endheader
time	pelvis_tilt	pelvis_list	pelvis_rotation	pelvis_tx	pelvis_ty	pelvis_tz	hip_flexion_r	hip_adduction_r	hip_rotation_r	knee_angle_r	ankle_angle_r	subtalar_angle_r	mtp_angle_r	hip_flexion_l	hip_adduction_l	hip_rotation_l	knee_angle_l	socket_flexion	socket_adduction	socket_rotation	socket_tx	socket_ty	socket_tz	foot_flex	lumbar_extension	lumbar_bending	lumbar_rotation
      0.32500000	      2.37938837	     -2.34410466	     -4.37682194	     -0.42690502	      1.01525363	      0.28808917	     13.72745648	      3.86223614	      2.59596922	    -64.88124857	      2.56524769	    -16.02244962	     26.13075551	     -1.23123826	      0.04032637	      9.11507603	     -3.23710340	      0.00000000	      0.00000000	      0.00000000	      0.00000000	     -0.01044148	      0.00000000	      1.32554327	    -11.47577846	     -1.32233509	      4.93410280
      0.32916667	      2.46413882	     -2.50930571	     -4.10561776	     -0.42199869	      1.01565643	      0.28730816	     14.11992318	      3.98742808	      2.36260815	    -64.49492752	      3.37607938	    -14.80763326	     26.58818108	     -1.68548935	     -0.10113855	      9.40548294	     -3.09927252	      0.00000000	      0.00000000	      0.00000000	      0.00000000	     -0.01049873	      0.00000000	      1.45758398	    -11.56530569	     -1.01685696	      4.34584729
      0.33333333	      2.50677479	     -2.49995210	     -4.02040759	     -0.41752070	      1.01600378	      0.28687965	     14.66532918	      4.01307398	      2.37979911	    -64.18987878	      3.44006766	    -14.81156016	     26.59870702	     -2.02144820	     -0.05070313	      9.42294318	     -3.06242554	      0.00000000	      0.00000000	      0.00000000	      0.00000000	     -0.01031849	      0.00000000	      1.51791976	    -11.66943418	     -0.99636670	      4.33577343
      0.33750000	      2.53150619	     -2.64387503	     -3.90425248	     -0.41258779	      1.01631605	      0.28650186	     15.10445756	      4.23606169	      2.41447238	    -63.75593190	      4.08385841	    -14.66331617	     26.77483612	     -2.45597975	     -0.19324140	      9.54505589	     -2.86294013	      0.00000000	      0.00000000	      0.00000000	      0.00000000	     -0.01023708	      0.00000000	      1.66934037	    -11.65879465	     -0.78387327	      4.11580532
      0.34166667	      2.57214855	     -2.63888638	     -3.83496886	     -0.40816611	      1.01658621	      0.28611797	     15.64349148	      4.25592879	      2.42029284	    -63.40468584	      4.13666863	    -14.65390277	     26.78225831	     -2.78296775	     -0.14966039	      9.56528731	     -2.84023746	      0.00000000	      0.00000000	      0.00000000	      0.00000000	     -0.01010888	      0.00000000	      1.72491889	    -11.77029755	     -0.77456616	      4.10029031
      0.34583333	      2.65839775	     -2.83701153	     -3.61469446	     -0.40322007	      1.01697131	      0.28551295	     15.95391068	      4.47045228	      2.32446105	    -62.82113707	      4.72248271	    -14.18727876	     26.96238575	     -3.26677293	     -0.34582161	      9.79167697	     -2.66587263	      0.00000000	      0.00000000	      0.00000000	      0.00000000	     -0.01012500	      0.00000000	      1.87281134	    -11.83831684	     -0.46666403	      3.68853637
      0.35000000	      2.69358119	     -2.82450113	     -3.54174183	     -0.39884384	      1.01715025	      0.28516234	     16.48994944	      4.48231746	      2.33624796	    -62.43614468	      4.77921868	    -14.18957454	     26.96610383	     -3.58637985	     -0.29818692	      9.80801223	     -2.63405754	      0.00000000	      0.00000000	      0.00000000	      0.00000000	     -0.01001685	      0.00000000	      1.93227757	    -11.95160949	     -0.46668142	      3.67604910
      0.35416667	      2.70212608	     -2.84331818	     -3.43421458	     -0.39393203	      1.01744293	      0.28489438	     16.89374162	      4.56257494	      2.40676192	    -61.82908524	      5.03178945	    -14.17802133	     26.99826517	     -3.98453527	     -0.31540464	      9.92338036	     -2.45436386	      0.00000000	      0.00000000	      0.00000000	      0.00000000	     -0.00969177	      0.00000000	      2.10877905	    -11.89952872	     -0.44266658	      3.59054947
      0.35833333	      2.73203205	     -2.84898492	     -3.35951022	     -0.38959687	      1.01750683	      0.28451897	     17.42014709	      4.58498600	      2.41863232	    -61.40292153	      5.12816433	    -14.17942027	     27.00608778	     -4.29812164	     -0.28779878	      9.94343771	     -2.42265609	      0.00000000	      0.00000000	      0.00000000	      0.00000000	     -0.00970148	      0.00000000	      2.16475974	    -12.02268589	     -0.42012383	      3.56230725
      0.36250000	      2.79531707	     -3.13654730	     -3.12073684	     -0.38466653	      1.01780337	      0.28399436	     17.66479061	      4.91609835	      2.33078544	    -60.63704205	      5.80712166	    -14.01994683	     27.05501920	     -4.75294400	     -0.60182223	     10.16429918	     -2.25925775	      0.00000000	      0.00000000	      0.00000000	      0.00000000	     -0.00983958	      0.00000000	      2.29367064	    -12.07430996	      0.00151339	      3.13260876
      0.36666667	      2.81462385	     -3.11100693	     -3.01755336	     -0.38009390	      1.01796193	      0.28369674	     18.09808134	      4.92017652	      2.37924311	    -60.03836564	      5.89633683	    -14.00855472	     27.04122137	     -5.09371481	     -0.55913787	     10.23742199	     -2.16607569	      0.00000000	      0.00000000	      0.00000000	      0.00000000	     -0.00961721	      0.00000000	      2.40987826	    -12.11230503	     -0.01957318	      3.07972245
      0.37083333	      2.83230017	     -3.11854421	     -2.90601269	     -0.37552294	      1.01807947	      0.28340108	     18.50766576	      4.95836719	      2.41926696	    -59.39949829	      6.05668288	    -14.01324632	     27.02808703	     -5.43578044	     -0.55767096	     10.32170348	     -2.07380022	      0.00000000	      0.00000000	      0.00000000	      0.00000000	     -0.00946825	      0.00000000	      2.52455024	    -12.15220682	     -0.00344709	      2.99860365
      0.37500000	      2.85381866	     -3.17164475	     -2.76954690	     -0.37097521	      1.01818166	      0.28306538	     18.89303589	      5.04376030	      2.43493983	    -58.71764425	      6.28225407	    -14.03217023	     26.99914394	     -5.78027843	     -0.60775654	     10.42923978	     -1.98219599	      0.00000000	      0.00000000	      0.00000000	      0.00000000	     -0.00938814	      0.00000000	      2.63261287	    -12.21445843	      0.08022347	      2.86599508
      0.37916667	      2.87341777	     -3.22072603	     -2.62787751	     -0.36642843	      1.01825844	      0.28271354	     19.26700638	      5.11522632	      2.44819943	    -58.00487881	      6.48188007	    -14.06142770	     26.95162180	     -6.12050976	     -0.65431958	     10.53545930	     -1.89423217	      0.00000000	      0.00000000	      0.00000000	      0.00000000	     -0.00930355	      0.00000000	      2.73955615	    -12.27383660	      0.15787019	      2.72875281
      0.38333333	      2.88290060	     -3.22305126	     -2.51618210	     -0.36193813	      1.01829003	      0.28242118	     19.65694848	      5.13359431	      2.47415152	    -57.30052305	      6.61524542	    -14.09055700	     26.91341693	     -6.43596590	     -0.64920142	     10.60511449	     -1.82327944	      0.00000000	      0.00000000	      0.00000000	      0.00000000	     -0.00922172	      0.00000000	      2.83738914	    -12.32459136	      0.18316866	      2.64632976
      0.38750000	      3.03975611	     -3.49036370	     -2.17381488	     -0.35745057	      1.01853857	      0.28174759	     19.78335031	      5.37315881	      2.27069193	    -56.40720400	      6.86869676	    -14.25781755	     26.38170673	     -6.90668654	     -0.95747493	     10.94519896	     -1.74140285	      0.00000000	      0.00000000	      0.00000000	      0.00000000	     -0.00944928	      0.00000000	      2.93612201	    -12.57190859	      0.59677054	      2.04150383
      0.39166667	      3.02661579	     -3.43252638	     -2.08733158	     -0.35299600	      1.01850975	      0.28151570	     20.19055109	      5.32747285	      2.32186506	    -55.66859914	      6.95908872	    -14.28367045	     26.33843542	     -7.19461001	     -0.88519471	     10.96580009	     -1.67713120	      0.00000000	      0.00000000	      0.00000000	      0.00000000	     -0.00926215	      0.00000000	      3.03428541	    -12.60084584	      0.53813004	      2.02430841
      0.39583333	      3.00947737	     -3.38800367	     -1.99400607	     -0.34855952	      1.01845385	      0.28130086	     20.57648667	      5.30309739	      2.38938736	    -54.88771969	      7.06741014	    -14.32457718	     26.28863459	     -7.47535154	     -0.83469379	     11.02567007	     -1.61281768	      0.00000000	      0.00000000	      0.00000000	      0.00000000	     -0.00911299	      0.00000000	      3.14109545	    -12.62737883	      0.48746345	      1.99240124
